<svg width="1024" height="1024" viewBox="0 0 1024 1024" fill="none" xmlns="http://www.w3.org/2000/svg">
<g clip-path="url(#clip0_4_10)">
<rect width="1024" height="1024" fill="#E6E6DA"/>
<path fill-rule="evenodd" clip-rule="evenodd" d="M531.803 577.532C530.816 580.105 532.363 588.099 534.853 593.286C539.779 603.549 547.093 609.16 557.823 610.906C565.319 612.126 565.791 610.906 559.945 605.435C554.556 600.394 548.288 593.621 549.011 593.621C549.273 593.621 553.266 596.574 557.882 600.182L566.275 606.743L565.766 601.81C564.334 587.931 553.155 577.862 537.735 576.559C533.256 576.181 532.259 576.344 531.803 577.532ZM591.711 577.278C579.985 580.041 569.476 591.764 569.474 602.085L569.473 605.797L576.171 600.73C587.572 592.104 587.594 592.254 576.58 603.434L569.041 611.087L575.522 610.7C589.265 609.879 599.089 600.436 602.787 584.491C604.08 578.915 604.072 578.499 602.639 577.451C600.929 576.202 596.576 576.133 591.711 577.278ZM438.334 593.474C437.477 594.018 437.294 604.49 437.47 642.932L437.693 691.7L444.606 691.958C450.671 692.183 451.692 692.001 452.93 690.475C454.337 688.74 454.351 688.74 457.857 690.433C474.968 698.701 495.658 691.07 504.468 673.244C507.651 666.805 507.688 666.61 507.672 656.316C507.657 646.439 507.514 645.6 504.916 640.064C496.489 622.114 476.557 614.245 459.703 622.216C456.78 623.599 454.229 624.73 454.034 624.73C453.839 624.73 453.679 618.147 453.679 610.101C453.679 592.59 453.758 592.751 445.193 592.77C442.018 592.778 438.932 593.094 438.334 593.474ZM639.641 593.794C638.913 594.522 638.604 599.383 638.604 610.129V625.428L633.911 622.886C627.444 619.383 620.311 618.228 613.003 619.501C601.177 621.56 593.06 627.81 587.414 639.204C583.736 646.627 583.732 646.646 583.774 656.206C583.822 667.012 585.515 672.82 590.54 679.407C601.12 693.278 621.93 697.895 635.732 689.433L638.476 687.75L638.756 689.725C639.019 691.58 639.48 691.716 646.301 691.954C650.297 692.093 653.923 691.85 654.36 691.413C655.542 690.23 655.214 595.324 654.022 593.888C652.799 592.415 641.096 592.339 639.641 593.794ZM244.788 619.957C233.748 623.066 225.838 629.728 221.059 639.941C216.544 649.588 216.679 663.602 221.384 673.751C224.334 680.114 233.534 688.85 239.806 691.246C249.955 695.122 262.63 694.489 271.733 689.651C276.445 687.148 285.173 679.124 285.173 677.296C285.173 676.658 282.423 674.482 279.063 672.461L272.952 668.785L269.275 671.799C264.286 675.887 260.213 677.442 254.496 677.442C246.837 677.442 240.719 674.17 237.002 668.087C235.935 666.341 235.06 664.426 235.058 663.832C235.054 662.992 240.713 662.752 260.484 662.752C282.449 662.752 286.099 662.567 287.272 661.394C289.873 658.792 288.403 645.962 284.58 637.907C283.806 636.276 281.254 632.841 278.909 630.275C270.44 621.01 256.269 616.724 244.788 619.957ZM320.642 619.625C304.433 622.802 292.131 638.61 292.097 656.305C292.066 671.492 300.042 684.21 313.69 690.741C318.879 693.224 320.001 693.429 328.425 693.429C337.209 693.429 337.782 693.311 344.057 690.209C350.15 687.198 358.625 679.811 358.625 677.511C358.625 676.654 349.524 670.098 346.979 669.12C346.203 668.823 344.364 669.762 342.481 671.416C333.301 679.475 322.567 679.436 314.409 671.314C310.062 666.985 308.514 663.149 308.514 656.703C308.514 650.599 310.07 646.473 313.971 642.227C318.37 637.439 321.663 635.964 327.948 635.964C333.869 635.964 337.477 637.41 342.202 641.679L345.845 644.97L349.426 642.922C355.278 639.577 358.625 636.722 358.625 635.077C358.625 633.051 350.74 626.006 345.5 623.352C337.231 619.161 329.171 617.953 320.642 619.625ZM388.908 619.571C371.595 623.207 359.334 640.21 360.606 658.818C361.175 667.124 362.773 671.931 367.082 678.282C373.165 687.248 383.178 692.846 394.554 693.641C408.958 694.648 422.313 686.5 428.698 672.812C434.102 661.227 432.941 645.377 425.912 634.765C422.381 629.435 414.87 623.497 408.745 621.195C403.247 619.128 394.448 618.408 388.908 619.571ZM547.006 619.525C541.957 620.174 534.694 623.009 532.126 625.334C530.366 626.926 530.385 626.939 529.236 623.434L528.386 620.841H521.061H513.737V656.271V691.7L520.516 691.954C524.77 692.113 527.747 691.833 528.509 691.2C529.483 690.392 529.723 686.515 529.723 671.604C529.723 651.319 530.219 648.222 534.25 643.332C537.701 639.145 542.324 636.956 549.349 636.18L555.215 635.532L555.464 627.538C555.609 622.859 555.37 619.545 554.886 619.545C554.432 619.545 553.542 619.403 552.91 619.23C552.276 619.056 549.62 619.189 547.006 619.525ZM686.152 620.012C680.594 621.57 675.088 624.646 670.598 628.702C664.522 634.191 659.344 646.835 659.344 656.181C659.344 661.384 661.532 670.584 663.871 675.219C666.862 681.143 673.482 687.297 680.307 690.496C686.142 693.231 687.146 693.426 695.205 693.391C702.307 693.359 704.571 693.009 707.916 691.422C710.153 690.36 712.217 689.113 712.503 688.652C713.656 686.785 714.648 688.009 714.648 691.296C714.648 698.86 708.909 706.584 701.443 709.063C694.147 711.487 686.603 709.127 680.674 702.564C678.926 700.629 677.095 699.045 676.607 699.045C674.667 699.045 663.664 705.189 663.664 706.272C663.664 707.982 668.046 713.7 672.274 717.505C691.08 734.432 721.345 726.573 729.419 702.666C730.98 698.043 731.071 695.315 730.86 659.287L730.635 620.841L723.479 620.59L716.323 620.338L715.198 623.013C714.227 625.322 713.925 625.508 712.986 624.377C711.213 622.241 702.536 619.435 696.502 619.046C693.008 618.822 689.097 619.186 686.152 620.012ZM760.677 620.484C739.602 627.162 729.479 652.908 739.737 673.744C748.994 692.547 772.511 699.553 790.664 688.917C795.431 686.123 803.042 678.635 802.569 677.203C802.195 676.073 797.399 672.605 792.737 670.095L789.894 668.564L786.676 671.389C779.867 677.368 770.7 679.122 763.472 675.83C760.173 674.328 753.534 667.945 753.534 666.277C753.534 665.841 753.298 664.871 753.01 664.119C752.539 662.891 755.08 662.752 777.905 662.752C797.71 662.752 803.671 662.498 804.898 661.601C806.27 660.597 806.424 659.46 806.103 652.729C805.801 646.426 805.252 643.978 803.111 639.403C795.56 623.267 777.421 615.18 760.677 620.484ZM562.76 621.057C562.362 621.889 562.25 638.124 562.514 657.135L562.992 691.7L569.772 691.954C574.309 692.124 576.986 691.846 577.869 691.114C579.023 690.156 579.144 685.757 578.831 656.167C578.552 629.68 578.224 622.014 577.325 620.93C575.59 618.841 563.774 618.944 562.76 621.057ZM262.319 637.363C264.318 638.386 266.926 640.872 268.62 643.369L271.509 647.629L262.355 647.875C257.319 648.01 249.102 648.01 244.095 647.875L234.989 647.629L237.514 643.652C241.046 638.087 247.46 634.858 254.11 635.299C256.749 635.474 260.443 636.403 262.319 637.363ZM780.486 637.414C783.248 639.027 788.964 645.669 788.964 647.265C788.964 647.725 781.487 648.061 771.249 648.061C761.506 648.061 753.534 647.848 753.534 647.586C753.534 644.737 759.347 638.478 763.904 636.422C767.875 634.632 776.616 635.154 780.486 637.414ZM405.088 637.804C412.211 641.253 417.442 651.464 416.167 659.435C413.789 674.305 398.649 681.804 386.352 674.202C380.193 670.394 377.324 665.609 376.921 658.473C376.511 651.223 377.595 647.702 381.718 642.885C387.565 636.053 397.162 633.967 405.088 637.804ZM482.952 638.814C494.079 646.178 495.438 661.862 485.784 671.504C479.431 677.849 472.036 679.1 464.14 675.165C455.72 670.97 451.6 661.964 453.629 652.19C454.974 645.714 458.471 641.074 464.186 638.182C470.357 635.06 477.65 635.305 482.952 638.814ZM628.315 637.974C642.914 645.679 642.748 667.887 628.037 675.219C622.346 678.055 617.143 678.106 611.384 675.383C603.397 671.607 599.718 665.717 599.718 656.703C599.718 648.12 603.647 641.078 610.264 637.802C615.486 635.218 623.232 635.291 628.315 637.974ZM702.794 637.128C714.911 642.206 719.108 657.781 711.402 669.071C707.072 675.414 697.188 678.943 690.208 676.639C685.413 675.057 680.307 670.901 678.282 666.931C672.811 656.206 677.159 642.236 687.42 637.575C691.53 635.709 698.894 635.494 702.794 637.128Z" fill="#174C38"/>
<path fill-rule="evenodd" clip-rule="evenodd" d="M487.088 299.525C459.41 302.851 443.776 306.454 421.404 314.663C408.565 319.375 388.577 328.828 388.577 330.189C388.577 330.77 391.158 334.892 394.312 339.35C407.854 358.487 417.408 366.516 448.073 384.531C455.844 389.096 465.76 395.513 470.109 398.79C483.869 409.161 497.905 424.074 508.206 439.269C510.541 442.714 512.69 445.534 512.978 445.534C513.267 445.534 514.156 444.429 514.955 443.078C518.915 436.373 532.566 419.879 541.061 411.533C553.31 399.499 562.127 392.931 578.503 383.644C601.962 370.339 613.545 361.313 624.39 347.887C630.6 340.199 636.583 331.319 636.583 329.791C636.583 328.622 625.396 323.024 612.329 317.652C592.522 309.511 575.552 304.79 552.883 301.114C544.231 299.712 536.932 299.282 517.765 299.046C504.457 298.882 490.652 299.098 487.088 299.525ZM364.248 344.269C325.342 373.352 301.21 399.515 280.204 435.387C275.193 443.943 264.141 466.525 264.141 468.206C264.141 468.843 270.036 468.963 283.368 468.598C302.957 468.061 314.667 466.443 322.952 463.128L326.349 461.768L322.542 454.732C316.602 443.75 314.989 437.548 314.479 423.714L314.04 411.833L318.255 411.845C326.268 411.867 326.043 411.579 326.621 422.487C326.926 428.216 327.879 434.771 328.968 438.615C331.07 446.037 335.584 455.039 337.204 455.039C338.703 455.039 345.903 449.23 350.167 444.579C361.218 432.525 367.424 418.404 369.497 400.599C370.4 392.841 371.087 341.343 370.298 340.554C370.044 340.3 367.321 341.972 364.248 344.269ZM656.066 341.773C655.793 342.215 655.721 356.702 655.907 373.965C656.167 398.075 656.551 406.659 657.562 410.989C660.805 424.875 668.48 439.474 676.441 446.901C681.129 451.275 687.561 455.904 688.951 455.904C690.372 455.904 695.614 445.549 697.819 438.385C698.811 435.166 699.84 429.916 700.108 426.719C700.375 423.522 700.771 418.832 700.987 416.297C701.203 413.762 701.583 411.362 701.829 410.962C702.076 410.563 704.315 409.567 706.805 408.749C709.294 407.93 711.876 407.058 712.543 406.811C713.559 406.434 713.675 408.103 713.259 417.09C712.517 433.138 709.336 445.448 703.053 456.589C701.634 459.104 700.7 461.529 700.977 461.978C701.655 463.075 708.928 465.134 717.846 466.754C725.117 468.074 761.883 469.619 761.883 468.604C761.883 468.315 760.359 464.615 758.495 460.381C745.272 430.332 728.869 406.466 702.655 379.132C691.431 367.429 682.326 359.434 668.698 349.315C658.289 341.586 656.75 340.667 656.066 341.773ZM639.209 348.802C628.178 364.529 608.645 380.865 585.599 393.637C567.997 403.393 557.764 411.134 545.407 424.043C537.934 431.849 528.228 444.411 524.727 450.805L522.551 454.78L531.002 456.183C575.639 463.597 614.077 492.032 633.415 531.947C635.602 536.463 638.452 543.938 639.747 548.56C641.042 553.181 642.23 556.834 642.386 556.678C642.862 556.202 643.8 343.566 643.325 343.566C643.082 343.566 641.23 345.922 639.209 348.802ZM382.57 450.935L382.612 557.439L385.012 550.526C393.348 526.512 403.119 510.627 420.117 493.448C439.041 474.325 465.647 460.991 494.227 456.307L503.526 454.783L500.802 449.943C495.931 441.29 488.685 432.36 477.191 420.846C463.99 407.623 459.315 404.165 440.309 393.571C432.531 389.235 424.417 384.506 422.278 383.06C408.832 373.975 392.667 358.77 386.366 349.279C384.595 346.612 383.008 344.43 382.837 344.43C382.667 344.43 382.547 392.357 382.57 450.935ZM354.175 462.79C352.602 463.776 350.717 466.014 349.986 467.763C345.367 478.817 361.476 486.671 367.864 476.479C373.292 467.817 362.837 457.362 354.175 462.79ZM666.245 462.339C661.146 464.576 658.707 470.936 661.142 475.645C664.922 482.954 676.652 482.49 679.793 474.905C680.776 472.534 680.766 471.56 679.725 468.617C677.67 462.804 671.614 459.983 666.245 462.339ZM272.024 480.189C266.617 480.578 262.024 481.065 261.818 481.27C261.179 481.91 266.301 494.281 269.786 500.517C273.946 507.956 286.783 521.033 294.063 525.247C300.424 528.929 309.738 532.416 325.76 537.111C337.798 540.641 342.764 542.747 350.273 547.509C357.032 551.796 365.279 559.6 368.936 565.169L372.371 570.401L371.869 560.464C371.006 543.324 366.235 528.818 356.889 514.915C344.358 496.276 324.623 484.057 301.299 480.498C292.442 479.147 287.278 479.092 272.024 480.189ZM725.187 480.544C684.167 487.248 657.401 518.258 654.342 562.624C653.85 569.765 653.915 570.26 655.147 568.673C670.017 549.525 681.334 542.107 705.788 535.48C718.795 531.955 730.38 527.172 737.087 522.558C742.779 518.641 750.168 510.868 754.751 503.975C758.524 498.299 764.475 485.093 764.475 482.395C764.475 479.876 737.154 478.588 725.187 480.544ZM251.758 505.401C250.035 511.684 247.833 521.686 246.866 527.627C245.057 538.739 242.978 571.317 243.921 573.774C244.371 574.948 246.347 575.163 257.104 575.209C264.064 575.239 286.868 575.441 307.78 575.658C328.692 575.875 349.194 575.809 353.339 575.514L360.876 574.974L359.665 572.633C357.546 568.537 350.29 561.125 345.128 557.786C338.316 553.379 329.964 550.032 315.125 545.76C294.537 539.834 283.049 533.543 272.267 522.295C265.731 515.477 261.454 509.073 257.759 500.573L254.892 493.977L251.758 505.401ZM768.566 502.001C761.176 517.561 750.844 528.659 736.823 536.094C729.438 540.009 721.213 543.077 702.69 548.823C688.181 553.324 682.808 556.03 675.963 562.286C671.611 566.264 665.964 573.624 665.964 575.318C665.964 576.13 774.419 576.235 779.06 575.428L781.979 574.92L781.508 556.243C781.189 543.597 780.463 534.017 779.261 526.58C777.51 515.754 773.623 498.998 772.325 496.678C771.871 495.868 770.671 497.569 768.566 502.001Z" fill="#648069"/>
</g>
<defs>
<clipPath id="clip0_4_10">
<rect width="1024" height="1024" fill="white"/>
</clipPath>
</defs>
</svg>
