<svg width="589" height="151" viewBox="0 0 589 151" fill="none" xmlns="http://www.w3.org/2000/svg">
<path fill-rule="evenodd" clip-rule="evenodd" d="M314.041 1.15359C313.053 3.72699 314.601 11.7211 317.091 16.9076C322.017 27.171 329.331 32.7818 340.061 34.5282C347.557 35.7484 348.029 34.5282 342.183 29.0574C336.794 24.016 330.526 17.2429 331.249 17.2429C331.511 17.2429 335.504 20.1957 340.12 23.8043L348.513 30.3648L348.004 25.4315C346.572 11.5526 335.393 1.48369 319.973 0.181443C315.494 -0.197048 314.497 -0.0337268 314.041 1.15359ZM373.949 0.900404C362.223 3.66304 351.714 15.3859 351.712 25.7071L351.711 29.4186L358.408 24.3521C369.81 15.7263 369.832 15.8758 358.818 27.056L351.279 34.7088L357.76 34.3217C371.503 33.5008 381.327 24.0575 385.025 8.11333C386.318 2.53706 386.31 2.12141 384.877 1.07321C383.167 -0.176324 378.814 -0.245439 373.949 0.900404ZM220.572 17.096C219.715 17.6395 219.532 28.112 219.708 66.5539L219.931 115.322L226.844 115.58C232.909 115.805 233.93 115.623 235.168 114.097C236.575 112.362 236.589 112.362 240.095 114.055C257.206 122.323 277.896 114.692 286.706 96.8661C289.889 90.4265 289.926 90.2321 289.91 79.9376C289.895 70.0606 289.752 69.2215 287.154 63.6858C278.727 45.736 258.795 37.8672 241.941 45.838C239.018 47.2206 236.467 48.3518 236.272 48.3518C236.077 48.3518 235.917 41.7688 235.917 33.7228C235.917 16.212 235.996 16.3727 227.431 16.3918C224.256 16.3995 221.17 16.7158 220.572 17.096ZM421.879 17.4158C421.151 18.1442 420.842 23.005 420.842 33.7513V49.05L416.149 46.5077C409.682 43.0045 402.548 41.85 395.241 43.1229C383.415 45.1821 375.298 51.4324 369.652 62.826C365.974 70.249 365.97 70.268 366.012 79.8279C366.06 90.6339 367.753 96.4417 372.778 103.029C383.358 116.9 404.168 121.517 417.97 113.055L420.714 111.372L420.994 113.347C421.257 115.202 421.718 115.338 428.539 115.575C432.535 115.715 436.161 115.472 436.598 115.034C437.78 113.852 437.452 18.9461 436.26 17.5099C435.037 16.0374 423.334 15.9605 421.879 17.4158ZM27.0257 43.5791C15.9864 46.6883 8.07609 53.3499 3.29656 63.5631C-1.21768 73.2103 -1.08287 87.224 3.62235 97.3733C6.57164 103.736 15.7721 112.472 22.044 114.868C32.1932 118.744 44.8684 118.111 53.9712 113.273C58.6833 110.77 67.4111 102.746 67.4111 100.918C67.4111 100.28 64.6614 98.1044 61.3008 96.0831L55.1905 92.4071L51.5127 95.4212C46.5241 99.5085 42.4514 101.064 36.7343 101.064C29.0754 101.064 22.9565 97.7924 19.2399 91.7089C18.1727 89.9625 17.2981 88.0484 17.2956 87.4539C17.2921 86.6139 22.9513 86.3737 42.7219 86.3737C64.6873 86.3737 68.3365 86.1888 69.51 85.0162C72.1111 82.4143 70.6412 69.5844 66.8183 61.529C66.044 59.8975 63.4922 56.4634 61.147 53.8969C52.6784 44.6317 38.5066 40.3464 27.0257 43.5791ZM102.879 43.2465C86.6709 46.4239 74.3691 62.2315 74.3345 79.9272C74.3043 95.1136 82.2802 107.832 95.9275 114.363C101.117 116.846 102.239 117.051 110.663 117.051C119.447 117.051 120.02 116.933 126.295 113.831C132.388 110.82 140.863 103.433 140.863 101.133C140.863 100.276 131.762 93.7197 129.217 92.7424C128.441 92.4451 126.602 93.3836 124.719 95.0375C115.539 103.097 104.805 103.058 96.6473 94.9356C92.2999 90.6071 90.7522 86.7712 90.7522 80.3248C90.7522 74.2205 92.3076 70.0951 96.2092 65.8488C100.608 61.0606 103.901 59.5855 110.186 59.5855C116.107 59.5855 119.715 61.0321 124.44 65.3009L128.083 68.5924L131.664 66.5444C137.516 63.1993 140.863 60.3442 140.863 58.6989C140.863 56.6725 132.978 49.6281 127.738 46.9735C119.469 42.7833 111.409 41.5752 102.879 43.2465ZM171.146 43.1929C153.833 46.8292 141.572 63.8319 142.844 82.4402C143.413 90.7462 145.011 95.5534 149.32 101.904C155.403 110.87 165.416 116.468 176.792 117.263C191.196 118.27 204.551 110.122 210.936 96.434C216.34 84.8485 215.179 68.9994 208.15 58.387C204.619 53.057 197.108 47.1186 190.983 44.8166C185.485 42.7496 176.686 42.0298 171.146 43.1929ZM329.244 43.1471C324.195 43.796 316.932 46.6313 314.364 48.9558C312.604 50.5475 312.623 50.5605 311.474 47.0556L310.624 44.4632H303.299H295.975V79.8927V115.322L302.754 115.576C307.008 115.735 309.985 115.454 310.747 114.822C311.721 114.014 311.961 110.137 311.961 95.2259C311.961 74.9412 312.457 71.8442 316.488 66.954C319.939 62.7673 324.562 60.5776 331.587 59.8016L337.453 59.1535L337.702 51.1602C337.847 46.4809 337.608 43.167 337.124 43.167C336.67 43.167 335.78 43.0253 335.148 42.8516C334.514 42.6779 331.858 42.8109 329.244 43.1471ZM468.39 43.6336C462.832 45.1916 457.326 48.2679 452.836 52.3242C446.76 57.8132 441.581 70.4572 441.581 79.8028C441.581 85.0058 443.77 94.2062 446.109 98.8406C449.099 104.765 455.72 110.919 462.545 114.118C468.38 116.853 469.384 117.048 477.443 117.012C484.545 116.981 486.809 116.631 490.154 115.044C492.391 113.982 494.455 112.735 494.741 112.274C495.894 110.407 496.886 111.631 496.886 114.918C496.886 122.482 491.147 130.206 483.681 132.685C476.385 135.109 468.841 132.749 462.912 126.186C461.164 124.251 459.333 122.667 458.845 122.667C456.905 122.667 445.902 128.811 445.902 129.894C445.902 131.604 450.284 137.322 454.512 141.127C473.318 158.054 503.583 150.195 511.657 126.288C513.218 121.665 513.309 118.937 513.098 82.9094L512.873 44.4632L505.717 44.2117L498.561 43.9602L497.436 46.6347C496.465 48.9437 496.163 49.1304 495.224 47.9992C493.451 45.8631 484.774 43.0572 478.74 42.6684C475.246 42.4437 471.335 42.8084 468.39 43.6336ZM542.915 44.1063C521.84 50.7843 511.717 76.5295 521.975 97.3664C531.232 116.169 554.749 123.175 572.901 112.539C577.669 109.745 585.28 102.257 584.807 100.825C584.433 99.6952 579.637 96.2274 574.975 93.7171L572.132 92.1859L568.914 95.0107C562.105 100.99 552.938 102.744 545.71 99.4515C542.411 97.9496 535.772 91.5671 535.772 89.8985C535.772 89.463 535.536 88.4925 535.248 87.7407C534.777 86.5128 537.318 86.3737 560.143 86.3737C579.948 86.3737 585.909 86.1197 587.136 85.2227C588.508 84.2194 588.662 83.0822 588.341 76.3506C588.039 70.0476 587.49 67.5995 585.348 63.0248C577.798 46.8888 559.659 38.8022 542.915 44.1063ZM344.998 44.6792C344.6 45.5105 344.488 61.7459 344.752 80.7568L345.23 115.322L352.01 115.576C356.547 115.746 359.224 115.468 360.107 114.735C361.261 113.778 361.382 109.379 361.069 79.789C360.79 53.3024 360.462 45.6358 359.563 44.5522C357.828 42.4627 346.012 42.5655 344.998 44.6792ZM44.5573 60.9845C46.556 62.0077 49.164 64.4938 50.8577 66.9912L53.7474 71.2513L44.5927 71.4968C39.5574 71.6316 31.3403 71.6316 26.3327 71.4968L17.2273 71.2513L19.7523 67.2737C23.284 61.7087 29.6985 58.4803 36.348 58.921C38.9871 59.0955 42.6812 60.0245 44.5573 60.9845ZM562.724 61.0364C565.486 62.6489 571.202 69.2906 571.202 70.8867C571.202 71.3473 563.725 71.6834 553.487 71.6834C543.744 71.6834 535.772 71.47 535.772 71.2082C535.772 68.3591 541.585 62.1002 546.142 60.0444C550.113 58.2539 558.854 58.7758 562.724 61.0364ZM187.326 61.4261C194.449 64.8749 199.68 75.0864 198.405 83.0571C196.027 97.9272 180.887 105.426 168.59 97.8243C162.431 94.0161 159.562 89.2305 159.159 82.0945C158.749 74.8453 159.833 71.3239 163.956 66.5073C169.803 59.6754 179.4 57.5894 187.326 61.4261ZM265.19 62.4363C276.317 69.7996 277.676 85.4836 268.022 95.1257C261.669 101.471 254.274 102.722 246.378 98.787C237.958 94.5916 233.838 85.5856 235.867 75.8123C237.212 69.3364 240.709 64.696 246.424 61.8037C252.595 58.6816 259.888 58.9271 265.19 62.4363ZM410.553 61.5955C425.152 69.301 424.986 91.5093 410.275 98.8406C404.584 101.677 399.381 101.728 393.622 99.0048C385.635 95.2285 381.956 89.3386 381.956 80.3248C381.956 71.7422 385.885 64.6995 392.502 61.4244C397.724 58.8398 405.47 58.9132 410.553 61.5955ZM485.032 60.7504C497.149 65.828 501.346 81.4032 493.64 92.6931C489.31 99.0359 479.426 102.565 472.446 100.261C467.651 98.679 462.545 94.5234 460.52 90.5527C455.049 79.8279 459.397 65.8583 469.658 61.1971C473.768 59.3306 481.132 59.1163 485.032 60.7504Z" fill="#174C38"/>
</svg>
