<svg width="589" height="428" viewBox="0 0 589 428" fill="none" xmlns="http://www.w3.org/2000/svg">
<path fill-rule="evenodd" clip-rule="evenodd" d="M314.041 278.541C313.053 281.114 314.601 289.108 317.091 294.295C322.017 304.558 329.331 310.169 340.061 311.916C347.557 313.136 348.029 311.916 342.183 306.445C336.794 301.403 330.526 294.63 331.249 294.63C331.511 294.63 335.504 297.583 340.12 301.192L348.513 307.752L348.004 302.819C346.572 288.94 335.393 278.871 319.973 277.569C315.494 277.19 314.497 277.354 314.041 278.541ZM373.949 278.288C362.223 281.05 351.714 292.773 351.712 303.094L351.711 306.806L358.408 301.739C369.81 293.114 369.832 293.263 358.818 304.443L351.279 312.096L357.76 311.709C371.503 310.888 381.327 301.445 385.025 285.501C386.318 279.924 386.31 279.509 384.877 278.461C383.167 277.211 378.814 277.142 373.949 278.288ZM220.572 294.483C219.715 295.027 219.532 305.499 219.708 343.941L219.931 392.71L226.844 392.967C232.909 393.193 233.93 393.01 235.168 391.484C236.575 389.749 236.589 389.749 240.095 391.443C257.206 399.71 277.896 392.08 286.706 374.253C289.889 367.814 289.926 367.619 289.91 357.325C289.895 347.448 289.752 346.609 287.154 341.073C278.727 323.123 258.795 315.255 241.941 323.225C239.018 324.608 236.467 325.739 236.272 325.739C236.077 325.739 235.917 319.156 235.917 311.11C235.917 293.599 235.996 293.76 227.431 293.779C224.256 293.787 221.17 294.103 220.572 294.483ZM421.879 294.803C421.151 295.532 420.842 300.392 420.842 311.139V326.437L416.149 323.895C409.682 320.392 402.548 319.237 395.241 320.51C383.415 322.569 375.298 328.82 369.652 340.213C365.974 347.636 365.97 347.655 366.012 357.215C366.06 368.021 367.753 373.829 372.778 380.416C383.358 394.287 404.168 398.905 417.97 390.442L420.714 388.76L420.994 390.734C421.257 392.589 421.718 392.725 428.539 392.963C432.535 393.102 436.161 392.859 436.598 392.422C437.78 391.24 437.452 296.333 436.26 294.897C435.037 293.425 423.334 293.348 421.879 294.803ZM27.0257 320.966C15.9864 324.076 8.07609 330.737 3.29656 340.95C-1.21768 350.598 -1.08287 364.611 3.62235 374.761C6.57164 381.123 15.7721 389.86 22.044 392.255C32.1932 396.132 44.8684 395.498 53.9712 390.661C58.6833 388.157 67.4111 380.133 67.4111 378.305C67.4111 377.668 64.6614 375.492 61.3008 373.47L55.1905 369.794L51.5127 372.809C46.5241 376.896 42.4514 378.451 36.7343 378.451C29.0754 378.451 22.9565 375.18 19.2399 369.096C18.1727 367.35 17.2981 365.436 17.2956 364.841C17.2921 364.001 22.9513 363.761 42.7219 363.761C64.6873 363.761 68.3365 363.576 69.51 362.403C72.1111 359.802 70.6412 346.972 66.8183 338.916C66.044 337.285 63.4922 333.851 61.147 331.284C52.6784 322.019 38.5066 317.734 27.0257 320.966ZM102.879 320.634C86.6709 323.811 74.3691 339.619 74.3345 357.315C74.3043 372.501 82.2802 385.219 95.9275 391.75C101.117 394.233 102.239 394.438 110.663 394.438C119.447 394.438 120.02 394.32 126.295 391.218C132.388 388.207 140.863 380.82 140.863 378.52C140.863 377.663 131.762 371.107 129.217 370.13C128.441 369.832 126.602 370.771 124.719 372.425C115.539 380.485 104.805 380.446 96.6473 372.323C92.2999 367.994 90.7522 364.159 90.7522 357.712C90.7522 351.608 92.3076 347.482 96.2092 343.236C100.608 338.448 103.901 336.973 110.186 336.973C116.107 336.973 119.715 338.419 124.44 342.688L128.083 345.98L131.664 343.932C137.516 340.587 140.863 337.732 140.863 336.086C140.863 334.06 132.978 327.015 127.738 324.361C119.469 320.171 111.409 318.963 102.879 320.634ZM171.146 320.58C153.833 324.216 141.572 341.219 142.844 359.827C143.413 368.134 145.011 372.941 149.32 379.291C155.403 388.258 165.416 393.855 176.792 394.65C191.196 395.657 204.551 387.509 210.936 373.821C216.34 362.236 215.179 346.387 208.15 335.774C204.619 330.444 197.108 324.506 190.983 322.204C185.485 320.137 176.686 319.417 171.146 320.58ZM329.244 320.534C324.195 321.183 316.932 324.019 314.364 326.343C312.604 327.935 312.623 327.948 311.474 324.443L310.624 321.85H303.299H295.975V357.28V392.71L302.754 392.964C307.008 393.123 309.985 392.842 310.747 392.209C311.721 391.401 311.961 387.525 311.961 372.613C311.961 352.329 312.457 349.231 316.488 344.341C319.939 340.155 324.562 337.965 331.587 337.189L337.453 336.541L337.702 328.548C337.847 323.868 337.608 320.554 337.124 320.554C336.67 320.554 335.78 320.413 335.148 320.239C334.514 320.065 331.858 320.198 329.244 320.534ZM468.39 321.021C462.832 322.579 457.326 325.655 452.836 329.712C446.76 335.201 441.581 347.845 441.581 357.19C441.581 362.393 443.77 371.594 446.109 376.228C449.099 382.152 455.72 388.306 462.545 391.505C468.38 394.24 469.384 394.435 477.443 394.4C484.545 394.369 486.809 394.018 490.154 392.431C492.391 391.369 494.455 390.122 494.741 389.661C495.894 387.794 496.886 389.018 496.886 392.305C496.886 399.87 491.147 407.593 483.681 410.073C476.385 412.497 468.841 410.137 462.912 403.573C461.164 401.639 459.333 400.055 458.845 400.055C456.905 400.055 445.902 406.199 445.902 407.281C445.902 408.992 450.284 414.71 454.512 418.514C473.318 435.441 503.583 427.583 511.657 403.675C513.218 399.052 513.309 396.324 513.098 360.297L512.873 321.85L505.717 321.599L498.561 321.348L497.436 324.022C496.465 326.331 496.163 326.518 495.224 325.387C493.451 323.25 484.774 320.445 478.74 320.056C475.246 319.831 471.335 320.196 468.39 321.021ZM542.915 321.494C521.84 328.172 511.717 353.917 521.975 374.754C531.232 393.556 554.749 400.562 572.901 389.926C577.669 387.132 585.28 379.644 584.807 378.212C584.433 377.083 579.637 373.615 574.975 371.104L572.132 369.573L568.914 372.398C562.105 378.377 552.938 380.131 545.71 376.839C542.411 375.337 535.772 368.954 535.772 367.286C535.772 366.85 535.536 365.88 535.248 365.128C534.777 363.9 537.318 363.761 560.143 363.761C579.948 363.761 585.909 363.507 587.136 362.61C588.508 361.607 588.662 360.47 588.341 353.738C588.039 347.435 587.49 344.987 585.348 340.412C577.798 324.276 559.659 316.19 542.915 321.494ZM344.998 322.067C344.6 322.898 344.488 339.133 344.752 358.144L345.23 392.71L352.01 392.964C356.547 393.133 359.224 392.856 360.107 392.123C361.261 391.165 361.382 386.766 361.069 357.176C360.79 330.69 360.462 323.023 359.563 321.939C357.828 319.85 346.012 319.953 344.998 322.067ZM44.5573 338.372C46.556 339.395 49.164 341.881 50.8577 344.378L53.7474 348.639L44.5927 348.884C39.5574 349.019 31.3403 349.019 26.3327 348.884L17.2273 348.639L19.7523 344.661C23.284 339.096 29.6985 335.868 36.348 336.308C38.9871 336.483 42.6812 337.412 44.5573 338.372ZM562.724 338.424C565.486 340.036 571.202 346.678 571.202 348.274C571.202 348.735 563.725 349.071 553.487 349.071C543.744 349.071 535.772 348.857 535.772 348.595C535.772 345.746 541.585 339.487 546.142 337.432C550.113 335.641 558.854 336.163 562.724 338.424ZM187.326 338.813C194.449 342.262 199.68 352.474 198.405 360.444C196.027 375.315 180.887 382.813 168.59 375.212C162.431 371.403 159.562 366.618 159.159 359.482C158.749 352.233 159.833 348.711 163.956 343.895C169.803 337.063 179.4 334.977 187.326 338.813ZM265.19 339.824C276.317 347.187 277.676 362.871 268.022 372.513C261.669 378.858 254.274 380.11 246.378 376.174C237.958 371.979 233.838 362.973 235.867 353.2C237.212 346.724 240.709 342.083 246.424 339.191C252.595 336.069 259.888 336.314 265.19 339.824ZM410.553 338.983C425.152 346.688 424.986 368.897 410.275 376.228C404.584 379.064 399.381 379.115 393.622 376.392C385.635 372.616 381.956 366.726 381.956 357.712C381.956 349.13 385.885 342.087 392.502 338.812C397.724 336.227 405.47 336.301 410.553 338.983ZM485.032 338.138C497.149 343.215 501.346 358.791 493.64 370.08C489.31 376.423 479.426 379.952 472.446 377.649C467.651 376.066 462.545 371.911 460.52 367.94C455.049 357.215 459.397 343.246 469.658 338.584C473.768 336.718 481.132 336.504 485.032 338.138Z" fill="#174C38"/>
<path fill-rule="evenodd" clip-rule="evenodd" d="M269.326 0.534594C241.648 3.85979 226.014 7.46323 203.642 15.6725C190.803 20.3846 170.814 29.8374 170.814 31.1984C170.814 31.7791 173.396 35.901 176.55 40.3591C190.092 59.4963 199.645 67.5249 230.311 85.5404C238.082 90.1057 247.998 96.5219 252.347 99.7995C266.107 110.17 280.143 125.083 290.444 140.278C292.779 143.724 294.928 146.543 295.216 146.543C295.505 146.543 296.394 145.438 297.192 144.087C301.153 137.383 314.804 120.889 323.299 112.542C335.548 100.508 344.365 93.9407 360.741 84.653C384.2 71.3479 395.783 62.322 406.628 48.8959C412.838 41.2086 418.821 32.3287 418.821 30.8C418.821 29.6317 407.634 24.033 394.567 18.6615C374.76 10.5205 357.79 5.7989 335.121 2.12373C326.469 0.721238 319.17 0.290914 300.003 0.0550055C286.695 -0.10918 272.89 0.106847 269.326 0.534594ZM146.486 45.2786C107.58 74.3611 83.4478 100.525 62.4416 136.397C57.4313 144.952 46.379 167.535 46.379 169.215C46.379 169.852 52.2742 169.972 65.606 169.607C85.1951 169.07 96.905 167.453 105.19 164.137L108.587 162.778L104.78 155.741C98.8398 144.76 97.2274 138.557 96.7166 124.724L96.2776 112.842L100.493 112.854C108.506 112.876 108.28 112.589 108.859 123.496C109.164 129.225 110.117 135.78 111.206 139.624C113.308 147.046 117.822 156.049 119.442 156.049C120.941 156.049 128.141 150.239 132.405 145.588C143.456 133.535 149.662 119.414 151.735 101.608C152.638 93.8499 153.325 42.3527 152.536 41.5637C152.282 41.3088 149.559 42.9809 146.486 45.2786ZM438.304 42.7821C438.031 43.2246 437.959 57.711 438.145 74.9738C438.405 99.084 438.789 107.668 439.8 111.999C443.043 125.884 450.718 140.483 458.679 147.91C463.367 152.284 469.799 156.913 471.189 156.913C472.61 156.913 477.852 146.559 480.057 139.394C481.049 136.175 482.078 130.926 482.346 127.728C482.613 124.531 483.009 119.841 483.225 117.306C483.441 114.772 483.821 112.371 484.067 111.972C484.314 111.573 486.553 110.576 489.043 109.758C491.532 108.939 494.114 108.068 494.781 107.82C495.797 107.444 495.912 109.112 495.497 118.099C494.755 134.147 491.574 146.457 485.291 157.598C483.872 160.114 482.937 162.538 483.215 162.988C483.893 164.084 491.166 166.144 500.084 167.763C507.355 169.083 544.121 170.628 544.121 169.613C544.121 169.324 542.597 165.624 540.733 161.391C527.51 131.341 511.107 107.476 484.893 80.1413C473.669 68.4383 464.564 60.4434 450.936 50.3243C440.527 42.5955 438.988 41.6761 438.304 42.7821ZM421.447 49.811C410.416 65.5383 390.883 81.8739 367.837 94.6467C350.235 104.402 340.002 112.144 327.645 125.052C320.172 132.858 310.466 145.42 306.965 151.814L304.789 155.789L313.239 157.193C357.877 164.606 396.315 193.041 415.653 232.957C417.84 237.472 420.69 244.947 421.985 249.569C423.28 254.19 424.468 257.843 424.624 257.687C425.1 257.211 426.038 44.5752 425.563 44.5752C425.32 44.5752 423.468 46.9317 421.447 49.811ZM164.808 151.944L164.85 258.449L167.25 251.536C175.586 227.521 185.357 211.637 202.355 194.458C221.279 175.334 247.885 162 276.465 157.316L285.764 155.792L283.04 150.952C278.169 142.299 270.923 133.369 259.429 121.856C246.228 108.632 241.553 105.174 222.547 94.5801C214.769 90.2448 206.654 85.5154 204.516 84.0697C191.07 74.9842 174.905 59.7788 168.604 50.288C166.833 47.6213 165.246 45.4394 165.075 45.4394C164.905 45.4394 164.785 93.366 164.808 151.944ZM136.413 163.799C134.84 164.785 132.955 167.023 132.224 168.772C127.605 179.826 143.714 187.68 150.102 177.488C155.53 168.827 145.074 158.371 136.413 163.799ZM448.483 163.348C443.384 165.585 440.945 171.945 443.38 176.654C447.16 183.964 458.89 183.499 462.031 175.914C463.014 173.543 463.004 172.569 461.963 169.626C459.908 163.813 453.852 160.992 448.483 163.348ZM54.2617 181.198C48.8548 181.587 44.2619 182.074 44.0562 182.279C43.4168 182.919 48.5385 195.291 52.0244 201.526C56.1844 208.966 69.0211 222.043 76.3006 226.256C82.6623 229.938 91.976 233.425 107.998 238.121C120.036 241.65 125.002 243.757 132.511 248.518C139.27 252.805 147.517 260.609 151.174 266.178L154.608 271.411L154.107 261.473C153.244 244.333 148.473 229.828 139.127 215.925C126.596 197.285 106.861 185.066 83.5368 181.507C74.6803 180.156 69.5163 180.101 54.2617 181.198ZM507.425 181.554C466.405 188.258 439.639 219.267 436.58 263.633C436.088 270.774 436.153 271.269 437.385 269.682C452.255 250.534 463.572 243.116 488.026 236.489C501.032 232.964 512.618 228.181 519.324 223.567C525.017 219.651 532.406 211.877 536.989 204.984C540.762 199.308 546.713 186.102 546.713 183.405C546.713 180.886 519.392 179.597 507.425 181.554ZM33.996 206.41C32.2729 212.694 30.0711 222.695 29.1041 228.636C27.2946 239.748 25.2164 272.326 26.1591 274.783C26.6094 275.957 28.5848 276.172 39.3424 276.218C46.3021 276.248 69.1058 276.45 90.0179 276.667C110.93 276.884 131.432 276.818 135.577 276.523L143.114 275.984L141.903 273.643C139.784 269.546 132.528 262.134 127.366 258.795C120.554 254.388 112.202 251.041 97.363 246.769C76.775 240.843 65.2872 234.553 54.5054 223.304C47.9691 216.486 43.6925 210.082 39.9974 201.583L37.1302 194.987L33.996 206.41ZM550.804 203.01C543.414 218.571 533.082 229.669 519.061 237.103C511.676 241.018 503.451 244.086 484.928 249.832C470.419 254.333 465.046 257.039 458.201 263.296C453.849 267.273 448.202 274.633 448.202 276.328C448.202 277.139 556.657 277.244 561.298 276.437L564.217 275.929L563.746 257.252C563.427 244.606 562.701 235.026 561.499 227.59C559.748 216.764 555.861 200.007 554.563 197.687C554.109 196.877 552.909 198.578 550.804 203.01Z" fill="#648069"/>
</svg>
