<svg width="539" height="277" viewBox="0 0 539 277" fill="none" xmlns="http://www.w3.org/2000/svg">
<path fill-rule="evenodd" clip-rule="evenodd" d="M243.402 0.534594C215.724 3.85979 200.09 7.46323 177.718 15.6725C164.879 20.3846 144.89 29.8374 144.89 31.1984C144.89 31.7791 147.472 35.901 150.626 40.3591C164.168 59.4963 173.721 67.5249 204.387 85.5404C212.158 90.1057 222.074 96.5219 226.422 99.7995C240.183 110.17 254.219 125.083 264.52 140.278C266.855 143.724 269.004 146.543 269.292 146.543C269.581 146.543 270.47 145.438 271.268 144.087C275.229 137.383 288.88 120.889 297.375 112.542C309.624 100.508 318.441 93.9407 334.817 84.653C358.276 71.3479 369.859 62.322 380.704 48.8959C386.914 41.2086 392.897 32.3287 392.897 30.8C392.897 29.6317 381.71 24.033 368.643 18.6615C348.836 10.5205 331.866 5.7989 309.197 2.12373C300.544 0.721238 293.246 0.290914 274.079 0.0550055C260.771 -0.10918 246.966 0.106847 243.402 0.534594ZM120.562 45.2786C81.6556 74.3611 57.5238 100.525 36.5175 136.397C31.5073 144.952 20.455 167.535 20.455 169.215C20.455 169.852 26.3501 169.972 39.682 169.607C59.2711 169.07 70.981 167.453 79.2663 164.137L82.6632 162.778L78.8558 155.741C72.9158 144.76 71.3033 138.557 70.7926 124.724L70.3536 112.842L74.5689 112.854C82.582 112.876 82.3564 112.589 82.9354 123.496C83.2396 129.225 84.1927 135.78 85.2815 139.624C87.384 147.046 91.8982 156.049 93.5176 156.049C95.0169 156.049 102.217 150.239 106.48 145.588C117.532 133.535 123.738 119.414 125.811 101.608C126.714 93.8499 127.401 42.3527 126.612 41.5637C126.358 41.3088 123.635 42.9809 120.562 45.2786ZM412.38 42.7821C412.107 43.2246 412.035 57.711 412.221 74.9738C412.481 99.084 412.865 107.668 413.876 111.999C417.119 125.884 424.794 140.483 432.755 147.91C437.443 152.284 443.875 156.913 445.265 156.913C446.686 156.913 451.928 146.559 454.133 139.394C455.124 136.175 456.154 130.926 456.422 127.728C456.689 124.531 457.085 119.841 457.301 117.306C457.517 114.772 457.897 112.371 458.143 111.972C458.39 111.573 460.629 110.576 463.119 109.758C465.608 108.939 468.19 108.068 468.857 107.82C469.873 107.444 469.988 109.112 469.573 118.099C468.83 134.147 465.65 146.457 459.366 157.598C457.948 160.114 457.013 162.538 457.291 162.988C457.969 164.084 465.242 166.144 474.16 167.763C481.431 169.083 518.197 170.628 518.197 169.613C518.197 169.324 516.672 165.624 514.809 161.391C501.586 131.341 485.183 107.476 458.969 80.1413C447.745 68.4383 438.64 60.4434 425.012 50.3243C414.603 42.5955 413.064 41.6761 412.38 42.7821ZM395.523 49.811C384.492 65.5383 364.959 81.8739 341.913 94.6467C324.311 104.402 314.078 112.144 301.721 125.052C294.248 132.858 284.542 145.42 281.041 151.814L278.865 155.789L287.315 157.193C331.953 164.606 370.391 193.041 389.729 232.957C391.916 237.472 394.765 244.947 396.061 249.569C397.356 254.19 398.543 257.843 398.7 257.687C399.176 257.211 400.114 44.5752 399.639 44.5752C399.395 44.5752 397.544 46.9317 395.523 49.811ZM138.884 151.944L138.926 258.449L141.326 251.536C149.662 227.521 159.433 211.637 176.431 194.458C195.355 175.334 221.961 162 250.541 157.316L259.84 155.792L257.116 150.952C252.245 142.299 244.999 133.369 233.505 121.856C220.303 108.632 215.629 105.174 196.623 94.5801C188.845 90.2448 180.73 85.5154 178.592 84.0697C165.146 74.9842 148.981 59.7788 142.68 50.288C140.909 47.6213 139.322 45.4394 139.151 45.4394C138.981 45.4394 138.861 93.366 138.884 151.944ZM110.489 163.799C108.916 164.785 107.031 167.023 106.3 168.772C101.681 179.826 117.79 187.68 124.178 177.488C129.606 168.827 119.15 158.371 110.489 163.799ZM422.559 163.348C417.46 165.585 415.021 171.945 417.456 176.654C421.236 183.964 432.966 183.499 436.107 175.914C437.09 173.543 437.08 172.569 436.039 169.626C433.984 163.813 427.927 160.992 422.559 163.348ZM28.3376 181.198C22.9307 181.587 18.3379 182.074 18.1322 182.279C17.4927 182.919 22.6145 195.291 26.1004 201.526C30.2603 208.966 43.0971 222.043 50.3765 226.256C56.7383 229.938 66.0519 233.425 82.0739 238.121C94.1121 241.65 99.0783 243.757 106.587 248.518C113.346 252.805 121.592 260.609 125.249 266.178L128.684 271.411L128.183 261.473C127.32 244.333 122.549 229.828 113.203 215.925C100.672 197.285 80.9367 185.066 57.6128 181.507C48.7563 180.156 43.5922 180.101 28.3376 181.198ZM481.501 181.554C440.481 188.258 413.715 219.267 410.656 263.633C410.163 270.774 410.229 271.269 411.461 269.682C426.331 250.534 437.648 243.116 462.101 236.489C475.108 232.964 486.694 228.181 493.4 223.567C499.093 219.651 506.482 211.877 511.065 204.984C514.838 199.308 520.789 186.102 520.789 183.405C520.789 180.886 493.468 179.597 481.501 181.554ZM8.07193 206.41C6.34884 212.694 4.14703 222.695 3.18006 228.636C1.37057 239.748 -0.707683 272.326 0.235088 274.783C0.685303 275.957 2.66071 276.172 13.4183 276.218C20.3781 276.248 43.1817 276.45 64.0938 276.667C85.0059 276.884 105.507 276.818 109.653 276.523L117.19 275.984L115.979 273.643C113.86 269.546 106.604 262.134 101.442 258.795C94.6297 254.388 86.2779 251.041 71.439 246.769C50.8509 240.843 39.3631 234.553 28.5813 223.304C22.045 216.486 17.7684 210.082 14.0734 201.583L11.2061 194.987L8.07193 206.41ZM524.88 203.01C517.49 218.571 507.157 229.669 493.137 237.103C485.752 241.018 477.527 244.086 459.004 249.832C444.495 254.333 439.122 257.039 432.277 263.296C427.925 267.273 422.278 274.633 422.278 276.328C422.278 277.139 530.733 277.244 535.374 276.437L538.293 275.929L537.822 257.252C537.503 244.606 536.777 235.026 535.575 227.59C533.824 216.764 529.937 200.007 528.639 197.687C528.185 196.877 526.985 198.578 524.88 203.01Z" fill="#648069"/>
</svg>
